<svg xmlns="http://www.w3.org/2000/svg" version="1.1" xmlns:xlink="http://www.w3.org/1999/xlink" xmlns:svgjs="http://svgjs.dev/svgjs" width="1000" height="1000"><g clip-path="url(#SvgjsClipPath1055)"><rect width="1000" height="1000" fill="#222222"></rect><g transform="matrix(4.4692737430167595,0,0,4.4692737430167595,100,115.64245810055866)"><svg xmlns="http://www.w3.org/2000/svg" version="1.1" xmlns:xlink="http://www.w3.org/1999/xlink" xmlns:svgjs="http://svgjs.dev/svgjs" width="179" height="172"><svg width="179" height="172" viewBox="0 0 179 172" fill="none" xmlns="http://www.w3.org/2000/svg">
<path d="M177.185 0H0V168.937H177.185V0Z" fill="#222222"></path>
<path d="M117.766 94.6039L116.11 92.5357L118.892 90.6869L120.561 92.858L117.766 94.6039ZM114.003 96.9649L112.369 95.0294L114.882 93.3525L116.54 95.3825L114.003 96.9649ZM109.743 92.0755L112.39 90.1533L114.215 92.4L111.561 94.2148L109.743 92.0755ZM116.376 87.2465L118.225 89.6584L115.291 91.6604L113.455 89.3751L116.376 87.2465ZM88.9763 57.4831H84.3238V52.5876H88.9763V57.4831ZM88.9763 64.2729H84.3238V59.3754H88.9763V64.2729ZM82.4016 57.352H78.0023V52.7187H82.4016V57.352ZM82.4016 64.1398H78.0023V59.5065H82.4016V64.1398ZM52.7394 107.307L49.9076 105.371L51.8596 102.97L54.6762 105.023L52.7394 107.307ZM50.1338 110.241L47.4327 108.551L49.1939 106.386L51.8814 108.173L50.1338 110.241ZM43.1412 105.857L44.9173 103.544L47.8848 105.513L46.1151 107.719L43.1412 105.857ZM47.6096 99.8713L50.7205 102.14L48.7555 104.585L45.6313 102.447L47.6096 99.8713ZM64.7255 86.9499L62.6275 83.8318L65.7709 82.2241L67.792 85.4512L64.7255 86.9499ZM60.6537 88.827L58.5874 86.0143L61.4189 84.5633L63.4271 87.4724L60.6537 88.827ZM55.3019 81.5384L58.2243 79.9404L60.4408 83.1438L57.5791 84.636L55.3019 81.5384ZM62.7154 77.352L64.9514 80.9169L61.7805 82.5704L59.4669 79.1301L62.7154 77.352ZM100.426 72.9848L103.594 74.6065L101.479 77.743L98.3911 76.2317L100.426 72.9848ZM103.508 68.0828L106.779 69.8697L104.444 73.3311L101.253 71.6715L103.508 68.0828ZM110.971 72.2952L108.682 75.4149L105.79 73.9097L108.023 70.6891L110.971 72.2952ZM105.586 79.6334L102.791 78.2655L104.809 75.3438L107.658 76.7993L105.586 79.6334ZM116.454 79.1577L116.207 78.8117C113.807 80.2156 111.498 81.8328 109.26 83.6881C104.282 87.8141 100.189 92.6902 97.007 98.0657C102.973 86.171 110.219 76.9518 118.314 71.4284C112.614 68.6251 107.088 63.8542 101.95 56.9865L101.683 56.664C100.329 59.6418 99.0577 62.8582 97.9073 66.3333C93.6527 79.1126 91.4615 93.4064 91.1736 107.565C91.4962 83.4966 94.5345 63.2068 100.124 49.8206C95.3085 48.8938 90.1076 45.4389 84.6354 39.2469L84.5169 39.1093L84.5124 39.0914L84.5088 39.1002L84.3712 38.9434L84.3602 39.3001L84.2076 39.5042C77.8972 47.6421 71.6899 52.3464 65.7903 53.9016C73.6936 70.0485 78.9633 95.0015 81.133 124.834C79.7437 107.285 75.9727 89.7126 69.7421 74.2106C68.063 70.005 66.2414 66.0941 64.3345 62.4928L64.0466 62.9465C58.1704 71.8603 51.6555 78.2506 44.7907 82.2027C55.2376 88.3963 64.93 99.2502 73.2058 113.501C68.8649 107.111 63.4362 101.392 56.919 96.6637C54.0294 94.5672 51.0363 92.733 47.9663 91.1766L47.6784 91.6345C41.5526 100.979 34.1991 108.837 25.9623 115.165C45.7127 113.802 65.1341 119.175 81.4835 129.994C84.0139 113.447 85.5512 96.137 85.9491 79.0911C87.1527 90.1167 88.886 101.14 91.1545 111.729C103.756 102.189 119.075 96.8354 134.996 96.8789C128.086 92.2368 121.797 86.3242 116.454 79.1577Z" fill="white"></path>
<path d="M134.996 121.881C134.996 117.4 138.628 113.768 143.109 113.768C147.59 113.768 151.222 117.4 151.222 121.881C151.222 126.362 147.59 129.994 143.109 129.994C138.628 129.994 134.996 126.362 134.996 121.881Z" fill="#00ACAC"></path>
</svg></svg></g></g><defs><clipPath id="SvgjsClipPath1055"><rect width="1000" height="1000" x="0" y="0" rx="350" ry="350"></rect></clipPath></defs></svg>