<svg xmlns="http://www.w3.org/2000/svg" version="1.1" xmlns:xlink="http://www.w3.org/1999/xlink" xmlns:svgjs="http://svgjs.dev/svgjs" width="1000" height="1000"><g clip-path="url(#SvgjsClipPath1082)"><rect width="1000" height="1000" fill="#00acac"></rect><g transform="matrix(3.888888888888889,0,0,3.888888888888889,150,165.55555555555554)"><svg xmlns="http://www.w3.org/2000/svg" version="1.1" xmlns:xlink="http://www.w3.org/1999/xlink" xmlns:svgjs="http://svgjs.dev/svgjs" width="180" height="172"><svg width="180" height="172" viewBox="0 0 180 172" fill="none" xmlns="http://www.w3.org/2000/svg">
<rect width="179.676" height="170.902" transform="translate(0 0.369507)" fill="#00ACAC"></rect>
<path d="M119.094 96.47L117.415 94.3774L120.236 92.5071L121.928 94.7037L119.094 96.47ZM115.279 98.8581L113.621 96.9004L116.17 95.2037L117.851 97.2573L115.279 98.8581ZM110.959 93.9119L113.643 91.9677L115.494 94.2405L112.802 96.0764L110.959 93.9119ZM117.685 89.0271L119.56 91.467L116.584 93.492L114.723 91.1801L117.685 89.0271ZM89.8999 58.9172H85.1821V53.9651H89.8999V58.9172ZM89.8999 65.7863H85.1821V60.8315H89.8999V65.7863ZM83.2329 58.7849H78.7717V54.0974H83.2329V58.7849ZM83.2329 65.6513H78.7717V60.9642H83.2329V65.6513ZM53.1536 109.32L50.282 107.362L52.2615 104.933L55.1176 107.01L53.1536 109.32ZM50.5113 112.289L47.7723 110.58L49.5583 108.389L52.2835 110.197L50.5113 112.289ZM43.4204 107.854L45.2215 105.514L48.2308 107.506L46.4362 109.738L43.4204 107.854ZM47.9517 101.799L51.1063 104.093L49.1137 106.567L45.9455 104.404L47.9517 101.799ZM65.3083 88.727L63.1807 85.5727L66.3683 83.9459L68.4178 87.2106L65.3083 88.727ZM61.1792 90.6256L59.0838 87.7802L61.9552 86.3127L63.9916 89.2552L61.1792 90.6256ZM55.7521 83.2522L58.7156 81.636L60.9633 84.8767L58.0613 86.3862L55.7521 83.2522ZM63.2699 79.0171L65.5373 82.6235L62.3218 84.2962L59.9757 80.8162L63.2699 79.0171ZM101.51 74.5995L104.723 76.2397L102.578 79.4131L99.4472 77.8842L101.51 74.5995ZM104.636 69.6405L107.953 71.4478L105.585 74.9498L102.35 73.2709L104.636 69.6405ZM112.204 73.9019L109.882 77.0578L106.95 75.5348L109.215 72.2768L112.204 73.9019ZM106.743 81.3251L103.909 79.9416L105.955 76.9859L108.844 78.458L106.743 81.3251ZM117.764 80.8441L117.514 80.4938C115.08 81.9144 112.738 83.5503 110.468 85.4272C105.421 89.6009 101.27 94.534 98.0436 99.9717C104.094 87.9391 111.441 78.6124 119.65 73.0247C113.87 70.1888 108.266 65.3624 103.056 58.4152L102.785 58.0889C101.412 61.1011 100.123 64.3552 98.9565 67.8703C94.6421 80.7985 92.4201 95.2582 92.1282 109.581C92.4553 85.2335 95.5363 64.7075 101.205 51.166C96.3211 50.2284 91.0471 46.7333 85.498 40.4689L85.3779 40.3297L85.3733 40.312L85.3696 40.3209L85.2301 40.1623L85.2189 40.5231L85.0643 40.7296C78.6651 48.9621 72.3706 53.7212 66.388 55.2941C74.4024 71.6287 79.7461 96.8718 81.9464 127.051C80.5376 109.298 76.7136 91.5215 70.3953 75.8395C68.6926 71.5847 66.8454 67.6287 64.9117 63.9855L64.6198 64.4442C58.661 73.462 52.0545 79.9265 45.0932 83.9243C55.687 90.1902 65.5156 101.17 73.9077 115.586C69.5058 109.122 64.0008 103.336 57.392 98.5534C54.4618 96.4326 51.4266 94.5773 48.3134 93.0028L48.0214 93.466C41.8095 102.919 34.3527 110.869 26 117.27C46.0281 115.891 65.7226 121.326 82.3019 132.271C84.8678 115.532 86.4267 98.0206 86.8302 80.7768C88.0508 91.9302 89.8084 103.082 92.1088 113.794C104.887 104.143 120.421 98.7274 136.567 98.7714C129.56 94.075 123.182 88.0937 117.764 80.8441Z" fill="white"></path>
<path d="M137.221 124.064C137.221 119.531 140.905 115.856 145.448 115.856C149.992 115.856 153.676 119.531 153.676 124.064C153.676 128.597 149.992 132.271 145.448 132.271C140.905 132.271 137.221 128.597 137.221 124.064Z" fill="white"></path>
</svg></svg></g></g><defs><clipPath id="SvgjsClipPath1082"><rect width="1000" height="1000" x="0" y="0" rx="350" ry="350"></rect></clipPath></defs></svg>